<svg xmlns="http://www.w3.org/2000/svg" width="64" height="35" fill="none" viewBox="0 0 64 35">
  <path fill="#263440" d="M64 17.5C64 27.165 49.673 35 32 35 14.327 35 0 27.165 0 17.5S14.327 0 32 0c17.673 0 32 7.835 32 17.5Z"/>
  <path fill="#fff" d="m17.548 23.364-.108-.036c-.008.024-.028.032-.06.024a.081.081 0 0 1-.06-.024c-.04-.064-.084-.092-.132-.084-.048.016-.112.008-.192-.024h-.012a.353.353 0 0 0-.084.012.08.08 0 0 1-.072.012l-.084-.072c0 .008-.008.012-.024.012a.227.227 0 0 1-.072-.012c-.024-.008-.032-.016-.024-.024l-.204-.108-.024.012-.132-.144c-.008.008-.016.012-.024.012-.016 0-.032-.012-.048-.036-.016-.016-.028-.024-.036-.024a1.526 1.526 0 0 0-.168-.12 1.977 1.977 0 0 1-.168-.108c-.008-.008-.012-.024-.012-.048 0-.016-.008-.028-.024-.036a.783.783 0 0 0-.084-.072.151.151 0 0 1-.06-.084l-.048.012a1.288 1.288 0 0 0-.168-.24.377.377 0 0 1-.084-.288h-.024l-.156-.06v-.036a.092.092 0 0 0-.036.012.197.197 0 0 1-.06-.012.967.967 0 0 1-.156-.084.38.38 0 0 1-.108-.144c-.008-.024-.02-.036-.036-.036-.008 0-.016-.004-.024-.012a.32.32 0 0 0-.072-.108.13.13 0 0 1-.036-.12l.036-.3c.064-.072.112-.108.144-.108.032 0 .048.036.048.108l-.072.12.012.144c.016.016.04.024.072.024a.167.167 0 0 0 .072-.012l-.012.072.048.084.012-.024.072.024.06.084c.016-.032.032-.032.048 0l.024.036.06-.048-.024-.12a.808.808 0 0 1-.012-.132c0-.056.004-.096.012-.12a.511.511 0 0 0 .024-.204l.048-.084c.032-.064.064-.104.096-.12l.096-.06.024.036a.51.51 0 0 0-.048.072.464.464 0 0 1-.06.084.74.74 0 0 0-.072.408v.036c.008.008.008.024 0 .048v.168c.016.008.024.04.024.096 0 .048.008.068.024.06a.09.09 0 0 1 .096.036c.032.024.056.012.072-.036l.084.096h.12c-.008.016.012.032.06.048.056.008.112.012.168.012h.084l.072.06c0-.008.012 0 .036.024h.012a.129.129 0 0 0 .072-.024.184.184 0 0 1 .072-.024c.04.008.08.024.12.048.048.024.084.024.108 0l.096.036.108-.06a.26.26 0 0 0 .096.048c.016.008.04.012.072.012.072 0 .124-.016.156-.048l.048.06c.112-.008.224-.008.336 0h.588l.252-.024h.06a.092.092 0 0 1 .036-.012c.056 0 .12-.016.192-.048a.465.465 0 0 1 .18-.048.39.39 0 0 0 .108-.036c.064-.032.084-.012.06.06l-.12.06-.036-.012a.71.71 0 0 1-.108.06c-.056.024-.088.028-.096.012l-.252.036c-.032.008-.08.016-.144.024-.064.008-.096.008-.096 0l-.108.024c0-.008-.008-.012-.024-.012a.46.46 0 0 0-.144.036c-.056.024-.088.032-.096.024-.008-.016-.048-.016-.12 0a1.547 1.547 0 0 1-.192.012c-.096 0-.148-.016-.156-.048l-.096.036c.016-.016.008-.024-.024-.024-.024-.008-.044-.008-.06 0l-.012.06a.051.051 0 0 1-.048 0l-.048-.024a.539.539 0 0 0-.228-.036c-.104 0-.204-.004-.3-.012s-.156-.028-.18-.06l-.096.048c-.032 0-.08-.004-.144-.012a4.362 4.362 0 0 0-.132-.036 3.354 3.354 0 0 0-.192-.048.52.52 0 0 0-.192-.012l.06.096v.024c.056.032.1.084.132.156.04.064.1.088.18.072l.036.156.096.06c.008-.008.016-.012.024-.012.024 0 .064.016.12.048.056.032.1.056.132.072l.036-.024.06.108c.008-.008.016-.012.024-.012.024 0 .052.008.084.024.032.016.052.02.06.012l.084.024.084-.024a.526.526 0 0 1 .06.108c.008.024.02.04.036.048.04.016.04.028 0 .036-.032.008-.048.02-.048.036l.012.024h.108c0-.024.028-.044.084-.06.064-.008.128-.012.192-.012.096 0 .152.008.168.024.032.016.04.016.024 0l.108-.012.072.06c.016-.024.032-.036.048-.036.024 0 .044.004.06.012l.036.024c.016.008.032-.008.048-.048.024-.032.052-.044.084-.036l.048.012a.609.609 0 0 0 .168-.024c.064-.016.1 0 .108.048l.084-.06.06.012-.024.096c0 .032.004.048.012.048.016 0 .036-.028.06-.084.032-.048.048-.052.048-.012l.084-.096a.17.17 0 0 0 .096.024.272.272 0 0 0 .18-.072.523.523 0 0 1 .204-.084l.012.024.048-.024c.024 0 .036.008.036.024l.132-.012a.856.856 0 0 1 .156-.084c.08-.032.136-.056.168-.072l.012-.048h.06c.048-.008.076-.016.084-.024v-.084c0-.04.016-.056.048-.048l.06.036c.072-.024.12-.056.144-.096a.465.465 0 0 1 .144-.132.214.214 0 0 0 .06-.06.178.178 0 0 1 .084-.048c.008 0 .02.012.036.036.024.024.048.02.072-.012l.012-.12.108-.036.06-.084v.012h.024c.032 0 .068-.032.108-.096.04-.064.048-.108.024-.132l.12-.132c-.008-.048.008-.108.048-.18a.465.465 0 0 0 .072-.264c0-.064-.02-.14-.06-.228a.91.91 0 0 0-.24-.288l-.06-.036a1.471 1.471 0 0 0-.264-.144 1.741 1.741 0 0 0-.288-.12l-.036-.024-.336-.096a.545.545 0 0 0-.216-.06 5.043 5.043 0 0 1-.228-.036.587.587 0 0 1-.06-.036c-.016-.016-.032-.012-.048.012l-.108-.06a.134.134 0 0 1-.06.012.107.107 0 0 1-.048-.012c-.008-.008-.032-.012-.072-.012a2.035 2.035 0 0 1-.276-.072c-.12-.04-.188-.052-.204-.036l-.312-.156-.036.012-.108-.06c.024.032.008.04-.048.024l-.192-.084a.646.646 0 0 0-.168-.072 1.235 1.235 0 0 1-.372-.24.522.522 0 0 1-.156-.384c0-.136.008-.232.024-.288a.6.6 0 0 1 .06-.144.54.54 0 0 0 .084-.18.477.477 0 0 1 .06-.072.212.212 0 0 0 .06-.096l.096-.06a.283.283 0 0 1 .06-.12.441.441 0 0 1 .108-.084c.104-.048.22-.128.348-.24a1.55 1.55 0 0 1 .48-.3.267.267 0 0 1 .084-.036l.012.024c.072-.024.192-.06.36-.108a11.894 11.894 0 0 1 1.128-.312c.184-.04.328-.06.432-.06.072 0 .112.012.12.036l.144-.084a.13.13 0 0 0 .048.024c.024 0 .04-.004.048-.012l.12.036a.184.184 0 0 1 .072-.024c.048 0 .1.016.156.048.064.024.112.032.144.024.04-.016.068-.02.084-.012h.12c.024 0 .048.004.072.012.032 0 .064.016.096.048l.06.012a.115.115 0 0 1 .036.084c.016.032.064.052.144.06.08.008.132.024.156.048.064.048.1.128.108.24.016.104.024.2.024.288a.954.954 0 0 1-.108.324.803.803 0 0 1-.216.288c-.04.032-.1.068-.18.108-.08.032-.14.06-.18.084a.526.526 0 0 1-.288.084c-.152 0-.228-.032-.228-.096 0-.024.028-.048.084-.072a1.43 1.43 0 0 0 .108-.048.558.558 0 0 0 .108-.084.21.21 0 0 1 .06-.024.14.14 0 0 0 .036-.024.14.14 0 0 0 .036-.024.136.136 0 0 1 .048-.048c.048-.04.108-.104.18-.192.08-.096.136-.168.168-.216.008-.04.024-.092.048-.156a.482.482 0 0 0 .048-.192c0-.048-.012-.084-.036-.108-.008 0-.012-.004-.012-.012l-.012-.024c-.064-.136-.192-.212-.384-.228a3.712 3.712 0 0 0-.468-.036l-.024-.012c-.016-.008-.024-.004-.024.012l-.264.024-.024-.024-.252.048-.024-.012-.264.072c.008-.016.004-.02-.012-.012h-.024l-.264.072-.012-.012-.12.072c0-.008-.004-.016-.012-.024l-.012-.012a.14.14 0 0 0-.024.036.14.14 0 0 1-.036.024l-.024-.012-.168.06c0 .008-.016.012-.048.012-.216.096-.452.208-.708.336-.248.12-.44.292-.576.516l-.024-.024-.108.096-.036.036c-.008.016-.02.044-.036.084-.024.064-.06.14-.108.228a.555.555 0 0 0-.012.48c.032.064.056.08.072.048l.108.072.036.132.024-.012.156.12h.024l.192.156.144.084h.096l.144.048c.016.008.028.02.036.036.016.008.036 0 .06-.024l.12.084c.008-.008.02-.012.036-.012.016 0 .032.008.048.024a.14.14 0 0 1 .036.024l.024-.012.42.168a.134.134 0 0 1 .06-.012.17.17 0 0 1 .096.024l.096.024c.016.008.036.02.06.036.032.016.048.028.048.036a.107.107 0 0 0 .048.012h.06l.108.036.108.06.108.012.096.048.216.072c.08.024.124.04.132.048l.072.072.012-.012.084.048c.088.056.176.164.264.324.096.152.144.32.144.504 0 .12-.02.24-.06.36a.986.986 0 0 1-.12.276c-.12.16-.252.304-.396.432a5.61 5.61 0 0 1-.372.324.464.464 0 0 0-.084.06c-.016.016-.04.024-.072.024a.15.15 0 0 0-.06.036c-.112.064-.236.12-.372.168a9.496 9.496 0 0 0-.36.156.395.395 0 0 1-.12.024l-.096.024a.196.196 0 0 0-.048.012c-.016.016-.024.02-.024.012l-.084.06c-.008-.008-.02-.012-.036-.012-.032 0-.068.016-.108.048-.032.032-.064.044-.096.036h-.012a.516.516 0 0 0-.096.012c-.032.016-.056.016-.072 0l-.156.06-.024-.06c-.008 0-.02.008-.036.024-.008.024-.02.036-.036.036l-.048-.024c-.032-.016-.056-.008-.072.024l-.132.036c-.008-.032-.032-.048-.072-.048a.115.115 0 0 0-.084.036l-.096-.048v.012l-.096-.012-.096.06Zm4.02.06a.821.821 0 0 1-.325-.072 1.572 1.572 0 0 0-.276-.072.274.274 0 0 1-.132-.108l-.06-.072c.024-.064.048-.092.072-.084.016.008.052.008.108 0 .008 0 .02-.004.036-.012h.109a.266.266 0 0 0 .084.012c.056 0 .1-.012.132-.036.064-.048.144-.116.24-.204a1.34 1.34 0 0 0 .216-.216c.016-.016.024-.044.024-.084.008-.04.028-.056.06-.048.16-.192.308-.38.444-.564l.432-.576c.04-.112.096-.22.168-.324.08-.104.156-.2.228-.288.16-.184.304-.372.432-.564-.008-.032.02-.084.084-.156a1.2 1.2 0 0 0 .12-.168.666.666 0 0 1 .036-.24c.032-.128.068-.256.108-.384a2.14 2.14 0 0 0 .072-.3c-.016.008-.02-.016-.012-.072a4.69 4.69 0 0 0 .048-.216.732.732 0 0 0 .036-.156l.06-.54a.516.516 0 0 0 .012-.096v-.072a.505.505 0 0 0-.012-.12c0-.04-.004-.096-.012-.168 0-.064.004-.128.012-.192.008-.072.012-.14.012-.204a.483.483 0 0 0-.012-.132v-.072a.092.092 0 0 0 .012-.036.535.535 0 0 0-.048-.132c-.016 0-.024-.012-.024-.036 0-.032.008-.064.024-.096s.032-.04.048-.024c.032.024.064.092.096.204.032.112.06.228.084.348.032.12.048.212.048.276v.072c0 .024.004.048.012.072.008.048.016.12.024.216.016.088.024.156.024.204v.204c0 .04-.004.084-.012.132-.008.104-.02.2-.036.288a2.671 2.671 0 0 0-.012.24c0 .064.008.12.024.168a.575.575 0 0 1 .096-.168 1.23 1.23 0 0 1 .144-.144l.024.012.048-.072.156-.144a.358.358 0 0 0 .036-.048c.016-.032.032-.044.048-.036l.06-.096.216-.132c.024-.032.052-.072.084-.12.04-.048.076-.088.108-.12a3.63 3.63 0 0 1 .384-.312c.136-.096.276-.192.42-.288a.379.379 0 0 1 .132-.06.425.425 0 0 0 .132-.072.14.14 0 0 1 .036-.024c.016-.016.028-.016.036 0l.12-.072.012.012c.016 0 .08-.032.192-.096l.084-.048.012.012.18-.084v.012c.072 0 .12-.008.144-.024l.012-.024a.318.318 0 0 1 .168-.072.675.675 0 0 0 .192-.048l.024.024.216-.048a.503.503 0 0 0 .156 0 .453.453 0 0 1 .144-.024h.048c.024 0 .052.008.084.024.016-.016.04-.024.072-.024.056 0 .12.012.192.036.08.016.132.028.156.036l.144.036c.176.096.324.22.444.372.04.064.08.14.12.228a.67.67 0 0 1 .084.228l-.012.096v.072a.227.227 0 0 1 .012.072c0 .168-.032.34-.096.516a2.346 2.346 0 0 1-.24.468c-.12.176-.252.336-.396.48a8.981 8.981 0 0 0-.384.408c-.024-.008-.08.036-.168.132a1.109 1.109 0 0 1-.192.18c0-.016-.004-.016-.012 0v.036l-.204.12c0 .016-.048.052-.144.108l-.156.084a.32.32 0 0 0-.084.06.282.282 0 0 1-.096.06h-.024l-.24.12c0-.016-.004-.024-.012-.024s-.024.012-.048.036c-.024.024-.044.032-.06.024l-.168.024c-.008 0-.028.012-.06.036-.024.024-.04.028-.048.012l-.408.192c-.08.016-.164.024-.252.024a2.535 2.535 0 0 0-.252-.012c0 .008-.008.012-.024.012-.016-.008-.024-.016-.024-.024-.048.024-.152.036-.312.036-.2 0-.348-.016-.444-.048 0 .008-.008.012-.024.012a.196.196 0 0 1-.048-.012c-.016-.016-.032-.024-.048-.024a.56.56 0 0 1-.204-.108 1.259 1.259 0 0 0-.216-.144c-.008-.016-.028-.028-.06-.036a.13.13 0 0 1-.048-.024l-.024-.048c0-.04.04-.06.12-.06a.388.388 0 0 1 .144 0c.104.04.176.06.216.06h.12c.048-.008.136-.012.264-.012.184 0 .372-.008.564-.024.2-.016.384-.064.552-.144h.012a.107.107 0 0 0 .048-.012c.024-.016.04-.016.048 0l.12-.108c.008.008.02.008.036 0a.092.092 0 0 1 .036-.012l.144-.024c0-.016.012-.036.036-.06.032-.024.052-.028.06-.012l.108-.036h.024l.108-.084h.012a.16.16 0 0 0 .096-.036.342.342 0 0 1 .072-.06c0-.008.012-.012.036-.012a.595.595 0 0 0 .132-.108c.056-.064.092-.08.108-.048l.084-.06h.012c.024-.008.04-.02.048-.036.008-.024.028-.032.06-.024a.526.526 0 0 1 .096-.096c.056-.048.084-.088.084-.12.08-.064.164-.116.252-.156a.372.372 0 0 0 .18-.228c.008 0 .04-.024.096-.072.056-.056.112-.12.168-.192.064-.072.112-.128.144-.168.008-.008.024-.008.048 0a.395.395 0 0 0 .096-.012.16.16 0 0 0 .096-.036c.032-.024.028-.048-.012-.072-.04-.024-.068-.036-.084-.036-.016-.008-.02-.032-.012-.072a.506.506 0 0 1 .048-.156c.024-.056.048-.108.072-.156l.072-.156c.016-.072.02-.116.012-.132v-.132c0-.272-.076-.456-.228-.552a2.149 2.149 0 0 0-.576-.276c-.008.008-.02.012-.036.012a.107.107 0 0 0-.048-.012.74.74 0 0 0-.216.012.588.588 0 0 1-.18 0 .336.336 0 0 1-.168.048.279.279 0 0 0-.168.036c-.008-.008-.064.012-.168.06-.104.04-.168.076-.192.108a.665.665 0 0 0-.156.06c-.056.032-.092.044-.108.036l-.06.072a.582.582 0 0 0-.228.096c-.088.048-.136.064-.144.048l-.108.084c.008.008.012.016.012.024 0 .032-.024.052-.072.06a.924.924 0 0 1-.084.012l-.012.036-.108.072-.036.036c-.008.008-.02.012-.036.012-.016-.008-.028-.004-.036.012a2.43 2.43 0 0 0-.12.132.446.446 0 0 1-.12.108.673.673 0 0 0-.24.18l-.216.216c-.008.008-.04.032-.096.072-.056.04-.092.056-.108.048a3.82 3.82 0 0 0-.108.156c-.048.072-.092.116-.132.132l-.06.132a.333.333 0 0 0-.132.096.253.253 0 0 1-.12.084.418.418 0 0 1-.12.216 1.178 1.178 0 0 0-.144.204 1.749 1.749 0 0 1 0 .564.53.53 0 0 1-.072.24v.012c0 .032-.016.068-.048.108-.032.04-.044.096-.036.168-.032.024-.064.084-.096.18a1.116 1.116 0 0 1-.072.216.44.44 0 0 1-.072.084c-.032.032-.04.056-.024.072a.701.701 0 0 0-.144.312.698.698 0 0 1-.144.3l-.024-.024c-.008.032-.016.06-.024.084a.312.312 0 0 1-.048.084 3.56 3.56 0 0 1-.084.144l-.144.216c-.048.072-.076.108-.084.108l-.06.12c-.024 0-.052.012-.084.036l-.06.06c.008.032-.012.072-.06.12-.048.056-.08.068-.096.036a1.186 1.186 0 0 0-.18.228.662.662 0 0 1-.228.216 2.87 2.87 0 0 0-.192.084c-.104.048-.156.08-.156.096l-.108.06c-.008-.008-.032.004-.072.036-.032.04-.064.04-.096 0a.227.227 0 0 1-.072.012.227.227 0 0 1-.072.012Zm.203-.456c.024 0 .052-.016.084-.048h.012c.024 0 .052-.02.084-.06a.6.6 0 0 0 .06-.084.282.282 0 0 0 .096-.06.305.305 0 0 0 .072-.072l.312-.3c.12-.12.216-.236.288-.348.072-.112.144-.236.216-.372.016-.024.048-.084.096-.18.056-.096.096-.144.12-.144.088-.16.152-.312.192-.456.048-.152.108-.312.18-.48l-.036-.048a.703.703 0 0 1-.084.096c-.04.04-.056.08-.048.12a1.002 1.002 0 0 0-.144.18 87.083 87.083 0 0 0-.564.828l-.252.396-.108.192a.33.33 0 0 0-.084.096.84.84 0 0 0-.06.12l-.012-.012c-.048.056-.12.148-.216.276-.088.128-.16.212-.216.252a.227.227 0 0 0-.012.072c0 .024.008.036.024.036Zm6.71.456a.82.82 0 0 1-.324-.072 1.572 1.572 0 0 0-.276-.072.274.274 0 0 1-.132-.108l-.06-.072c.024-.064.048-.092.072-.084.016.008.052.008.108 0 .008 0 .02-.004.036-.012h.108a.266.266 0 0 0 .084.012c.056 0 .1-.012.132-.036.064-.048.144-.116.24-.204a1.34 1.34 0 0 0 .216-.216c.016-.016.024-.044.024-.084.008-.04.028-.056.06-.048.16-.192.308-.38.444-.564l.432-.576c.04-.112.096-.22.168-.324.08-.104.156-.2.228-.288.16-.184.304-.372.432-.564-.008-.032.02-.084.084-.156a1.2 1.2 0 0 0 .12-.168.666.666 0 0 1 .036-.24c.032-.128.068-.256.108-.384a2.14 2.14 0 0 0 .072-.3c-.016.008-.02-.016-.012-.072a4.69 4.69 0 0 0 .048-.216.732.732 0 0 0 .036-.156l.06-.54a.516.516 0 0 0 .012-.096v-.072a.505.505 0 0 0-.012-.12c0-.04-.004-.096-.012-.168 0-.064.004-.128.012-.192.008-.072.012-.14.012-.204a.483.483 0 0 0-.012-.132v-.072a.092.092 0 0 0 .012-.036.535.535 0 0 0-.048-.132c-.016 0-.024-.012-.024-.036 0-.032.008-.064.024-.096s.032-.04.048-.024c.032.024.064.092.096.204.032.112.06.228.084.348.032.12.048.212.048.276v.072c0 .024.004.048.012.072.008.048.016.12.024.216.016.088.024.156.024.204v.204c0 .04-.004.084-.012.132-.008.104-.02.2-.036.288a2.671 2.671 0 0 0-.012.24c0 .064.008.12.024.168a.575.575 0 0 1 .096-.168c.048-.056.096-.104.144-.144l.024.012.048-.072.156-.144a.358.358 0 0 0 .036-.048c.016-.032.032-.044.048-.036l.06-.096.216-.132c.024-.032.052-.072.084-.12.04-.048.076-.088.108-.12a3.63 3.63 0 0 1 .384-.312c.136-.096.276-.192.42-.288a.379.379 0 0 1 .132-.06.425.425 0 0 0 .132-.072.14.14 0 0 1 .036-.024c.016-.016.028-.016.036 0l.12-.072.012.012c.016 0 .08-.032.192-.096l.084-.048.012.012.18-.084v.012c.072 0 .12-.008.144-.024l.012-.024a.318.318 0 0 1 .168-.072.675.675 0 0 0 .192-.048l.024.024.216-.048a.503.503 0 0 0 .156 0 .453.453 0 0 1 .144-.024h.048c.024 0 .052.008.084.024.016-.016.04-.024.072-.024.056 0 .12.012.192.036.08.016.132.028.156.036l.144.036c.176.096.324.22.444.372.04.064.08.14.12.228a.67.67 0 0 1 .084.228l-.012.096v.072a.227.227 0 0 1 .012.072c0 .168-.032.34-.096.516a2.346 2.346 0 0 1-.24.468c-.12.176-.252.336-.396.48a8.981 8.981 0 0 0-.384.408c-.024-.008-.08.036-.168.132a1.109 1.109 0 0 1-.192.18c0-.016-.004-.016-.012 0v.036l-.204.12c0 .016-.048.052-.144.108l-.156.084a.32.32 0 0 0-.084.06.282.282 0 0 1-.096.06h-.024l-.24.12c0-.016-.004-.024-.012-.024s-.024.012-.048.036c-.024.024-.044.032-.06.024l-.168.024c-.008 0-.028.012-.06.036-.024.024-.04.028-.048.012l-.408.192c-.08.016-.164.024-.252.024a2.535 2.535 0 0 0-.252-.012c0 .008-.008.012-.024.012-.016-.008-.024-.016-.024-.024-.048.024-.152.036-.312.036-.2 0-.348-.016-.444-.048 0 .008-.008.012-.024.012a.196.196 0 0 1-.048-.012c-.016-.016-.032-.024-.048-.024a.56.56 0 0 1-.204-.108 1.259 1.259 0 0 0-.216-.144c-.008-.016-.028-.028-.06-.036a.13.13 0 0 1-.048-.024l-.024-.048c0-.04.04-.06.12-.06a.388.388 0 0 1 .144 0c.104.04.176.06.216.06h.12c.048-.008.136-.012.264-.012.184 0 .372-.008.564-.024.2-.016.384-.064.552-.144h.012a.107.107 0 0 0 .048-.012c.024-.016.04-.016.048 0l.12-.108c.008.008.02.008.036 0a.092.092 0 0 1 .036-.012l.144-.024c0-.016.012-.036.036-.06.032-.024.052-.028.06-.012l.108-.036h.024l.108-.084h.012a.16.16 0 0 0 .096-.036.342.342 0 0 1 .072-.06c0-.008.012-.012.036-.012a.595.595 0 0 0 .132-.108c.056-.064.092-.08.108-.048l.084-.06h.012c.024-.008.04-.02.048-.036.008-.024.028-.032.06-.024a.526.526 0 0 1 .096-.096c.056-.048.084-.088.084-.12.08-.064.164-.116.252-.156a.372.372 0 0 0 .18-.228c.008 0 .04-.024.096-.072.056-.056.112-.12.168-.192.064-.072.112-.128.144-.168.008-.008.024-.008.048 0a.395.395 0 0 0 .096-.012.16.16 0 0 0 .096-.036c.032-.024.028-.048-.012-.072-.04-.024-.068-.036-.084-.036-.016-.008-.02-.032-.012-.072a.506.506 0 0 1 .048-.156c.024-.056.048-.108.072-.156l.072-.156c.016-.072.02-.116.012-.132v-.132c0-.272-.076-.456-.228-.552a2.149 2.149 0 0 0-.576-.276c-.008.008-.02.012-.036.012a.107.107 0 0 0-.048-.012.74.74 0 0 0-.216.012.588.588 0 0 1-.18 0 .336.336 0 0 1-.168.048.279.279 0 0 0-.168.036c-.008-.008-.064.012-.168.06-.104.04-.168.076-.192.108a.665.665 0 0 0-.156.06c-.056.032-.092.044-.108.036l-.06.072a.582.582 0 0 0-.228.096c-.088.048-.136.064-.144.048l-.108.084c.008.008.012.016.012.024 0 .032-.024.052-.072.06a.924.924 0 0 1-.084.012l-.012.036-.108.072-.036.036c-.008.008-.02.012-.036.012-.016-.008-.028-.004-.036.012a2.43 2.43 0 0 0-.12.132.446.446 0 0 1-.12.108.673.673 0 0 0-.24.18l-.216.216c-.008.008-.04.032-.096.072-.056.04-.092.056-.108.048a3.82 3.82 0 0 0-.108.156c-.048.072-.092.116-.132.132l-.06.132a.333.333 0 0 0-.132.096.253.253 0 0 1-.12.084.418.418 0 0 1-.12.216 1.178 1.178 0 0 0-.144.204 1.749 1.749 0 0 1 0 .564.53.53 0 0 1-.072.24v.012c0 .032-.016.068-.048.108-.032.04-.044.096-.036.168-.032.024-.064.084-.096.18a1.116 1.116 0 0 1-.072.216.44.44 0 0 1-.072.084c-.032.032-.04.056-.024.072a.701.701 0 0 0-.144.312.698.698 0 0 1-.144.3l-.024-.024c-.008.032-.016.06-.024.084a.312.312 0 0 1-.048.084 3.56 3.56 0 0 1-.084.144l-.144.216c-.048.072-.076.108-.084.108l-.06.12c-.024 0-.052.012-.084.036l-.06.06c.008.032-.012.072-.06.12-.048.056-.08.068-.096.036a1.186 1.186 0 0 0-.18.228.662.662 0 0 1-.228.216 2.87 2.87 0 0 0-.192.084c-.104.048-.156.08-.156.096l-.108.06c-.008-.008-.032.004-.072.036-.032.04-.064.04-.096 0a.227.227 0 0 1-.072.012.227.227 0 0 1-.072.012Zm.204-.456c.024 0 .052-.016.084-.048h.012c.024 0 .052-.02.084-.06a.6.6 0 0 0 .06-.084.282.282 0 0 0 .096-.06.305.305 0 0 0 .072-.072l.312-.3c.12-.12.216-.236.288-.348.072-.112.144-.236.216-.372.016-.024.048-.084.096-.18.056-.096.096-.144.12-.144.088-.16.152-.312.192-.456.048-.152.108-.312.18-.48l-.036-.048a.703.703 0 0 1-.084.096c-.04.04-.056.08-.048.12a1.002 1.002 0 0 0-.144.18 87.083 87.083 0 0 0-.564.828l-.252.396-.108.192a.33.33 0 0 0-.084.096.84.84 0 0 0-.06.12l-.012-.012c-.048.056-.12.148-.216.276-.088.128-.16.212-.216.252a.227.227 0 0 0-.012.072c0 .024.008.036.024.036Zm11.318-2.604a.3.3 0 0 1-.132-.024l-.108-.048c0-.008.036-.036.108-.084a.309.309 0 0 1 .192-.036c.08.008.136.008.168 0 .192-.04.424-.096.696-.168.272-.072.588-.216.948-.432l.468-.276c.04-.024.068-.02.084.012-.016.008-.024.028-.024.06.056 0 .088-.02.096-.06.016-.048.032-.092.048-.132h.012l.264-.168a.164.164 0 0 1 .108.012c.04.016.076.012.108-.012-.016-.032-.032-.052-.048-.06-.016-.016-.008-.036.024-.06l.048-.036a.816.816 0 0 1 .168-.084.219.219 0 0 0 .12-.132c.16-.144.296-.288.408-.432.112-.144.168-.28.168-.408 0-.136-.076-.252-.228-.348-.144-.104-.404-.18-.78-.228l-.096-.012a6.817 6.817 0 0 1-.156-.024.508.508 0 0 1-.144-.048c.008.032-.008.048-.048.048a4.715 4.715 0 0 0-.336-.012 4.551 4.551 0 0 0-.324-.012c-.176 0-.34.004-.492.012a5.126 5.126 0 0 0-.312.024l-.396.048a.159.159 0 0 0-.144.024h-.012a.609.609 0 0 0-.168.024c-.056.008-.116.02-.18.036a2.345 2.345 0 0 1-.108.024c-.04 0-.08.008-.12.024l-.24.048a.363.363 0 0 1-.216.06h-.012l-.228.06h-.012c-.032 0-.06-.016-.084-.048a.408.408 0 0 1-.048-.108c-.008.048-.02.1-.036.156-.016.056-.044.084-.084.084l-.336.108a.446.446 0 0 1-.108.012h-.12a.312.312 0 0 0-.096.012c-.024.008-.04.028-.048.06 0 .024-.012.044-.036.06a.301.301 0 0 1-.12.072.636.636 0 0 0-.132.036h-.012a.184.184 0 0 1-.072-.024c-.024-.016-.044-.02-.06-.012-.008.008-.016.028-.024.06s-.02.052-.036.06v.012a2.933 2.933 0 0 0-.312.132l-.168.084a.753.753 0 0 1-.144.048c-.016 0-.024-.016-.024-.048.008-.032.004-.04-.012-.024a.432.432 0 0 0-.144.132.508.508 0 0 1-.132.132.207.207 0 0 1-.132.048c-.04 0-.08.016-.12.048a.391.391 0 0 0-.072.12.273.273 0 0 1-.06.108 1.915 1.915 0 0 0-.228.276.081.081 0 0 0-.024.06h-.012a.617.617 0 0 0-.072.276c0 .176.064.304.192.384.136.08.288.14.456.18.032.008.06.02.084.036.032.016.064.02.096.012a.193.193 0 0 1 .084-.024c.04 0 .072.016.096.048l.18.036c.096.024.144.048.144.072 0 .016-.024.032-.072.048a.61.61 0 0 1-.12.012 1.948 1.948 0 0 1-1.092-.36.657.657 0 0 1-.288-.468c0-.008-.012-.028-.036-.06a.658.658 0 0 1-.072-.3c0-.136.028-.264.084-.384a1.42 1.42 0 0 1 .252-.336.441.441 0 0 1 .108-.084.736.736 0 0 0 .132-.072c.048-.032.072-.06.072-.084 0-.024.024-.052.072-.084.064-.04.152-.088.264-.144.12-.056.212-.1.276-.132.048 0 .092-.02.132-.06.16-.072.328-.136.504-.192a13.7 13.7 0 0 1 .612-.204.227.227 0 0 1 .072-.012.16.16 0 0 1 .096.036c0-.016-.004-.028-.012-.036 0-.016.008-.028.024-.036.2-.064.396-.124.588-.18.2-.064.396-.096.588-.096h.012a.107.107 0 0 0 .048-.012.197.197 0 0 1 .06-.012h.012l.084-.012c.048.024.096.016.144-.024a6.32 6.32 0 0 1 .6-.084c.184-.024.34-.036.468-.036h.048c.04 0 .072-.004.096-.012h.12a.111.111 0 0 1 .072 0h.084c.096 0 .196.004.3.012h.349a.08.08 0 0 1 .072.036c.024.016.052.008.084-.024.216.008.432.032.648.072.16.024.344.072.552.144.216.072.404.184.564.336.16.144.24.348.24.612 0 .128-.016.244-.048.348a.614.614 0 0 1-.144.264 2.1 2.1 0 0 1-.228.24.783.783 0 0 0-.072.084.418.418 0 0 1-.084.084.13.13 0 0 1-.048.024.107.107 0 0 0-.048.012.188.188 0 0 1-.048.036.587.587 0 0 0-.06.036 5.15 5.15 0 0 1-.684.396c-.184.08-.428.172-.732.276a1.993 1.993 0 0 1-.204.06.17.17 0 0 0-.096.024 6.52 6.52 0 0 0-.684.24 3.324 3.324 0 0 1-.66.204.904.904 0 0 1-.156.036 2.41 2.41 0 0 1-.24.012Zm3.588 3.588h-.084c-.048 0-.076-.004-.084-.012-.032-.016-.044-.04-.036-.072.008-.032-.004-.048-.036-.048s-.052.012-.06.036c-.008.032-.032.048-.072.048h-.012c-.04 0-.076-.02-.108-.06-.024-.04-.052-.052-.084-.036a.283.283 0 0 1-.12.036.16.16 0 0 1-.132-.06.456.456 0 0 0-.132-.108.196.196 0 0 0-.048.012.051.051 0 0 1-.048 0 2.172 2.172 0 0 0-.192-.108 7.548 7.548 0 0 1-.576-.3c-.024-.056-.048-.088-.072-.096a.298.298 0 0 0-.108-.012 1.313 1.313 0 0 0-.132-.084.187.187 0 0 1-.096-.096 1.28 1.28 0 0 1-.276-.144 4.242 4.242 0 0 1-.252-.192.15.15 0 0 0-.06-.036.15.15 0 0 1-.06-.036l-.324-.24c-.016-.048-.076-.1-.18-.156a.748.748 0 0 1-.216-.18c-.008-.008-.012-.016-.012-.024 0-.04-.02-.06-.06-.06h-.072c-.024 0-.036-.016-.036-.048a.547.547 0 0 0-.18-.192 3.942 3.942 0 0 1-.264-.24c-.08-.08-.108-.148-.084-.204a.395.395 0 0 0-.096-.012.08.08 0 0 1-.072-.036.477.477 0 0 0-.12-.156.305.305 0 0 1-.072-.072l-.06.12a1.57 1.57 0 0 0-.096.168 5.332 5.332 0 0 1-.108.204l-.108.216c-.008.024-.02.036-.036.036-.008-.008-.02-.012-.036-.012.016.032.024.06.024.084 0 .064-.036.132-.108.204-.104.24-.2.468-.288.684a4.848 4.848 0 0 0-.204.6c-.016.064-.04.096-.072.096-.056 0-.084-.06-.084-.18 0-.112.044-.288.132-.528l-.012.012a.502.502 0 0 0-.084.024c-.048.016-.08.02-.096.012-.104 0-.156-.036-.156-.108 0-.192.04-.392.12-.6l.312-.816a.129.129 0 0 0 .024-.072l.024-.072.012-.012v-.012l.048-.252a.897.897 0 0 0 .024-.192c.008-.056.012-.124.012-.204 0-.024.012-.04.036-.048a.95.95 0 0 1 .012-.156c.008-.056.012-.112.012-.168v-.06c-.008-.008-.012-.024-.012-.048a.107.107 0 0 0-.012-.048v-.06c.008-.008.012-.016.012-.024a.928.928 0 0 1 .084-.264c.048-.08.1-.1.156-.06.016.008.044.056.084.144.048.088.088.152.12.192.032.08.072.156.12.228a.94.94 0 0 1 .12.216c.024.04.036.072.036.096 0 .016.028.032.084.048.232-.416.464-.812.696-1.188.24-.384.464-.68.672-.888l.036-.024.036-.06.024-.012c.016-.008.028-.004.036.012 0 .008-.008.024-.024.048a.196.196 0 0 0-.012.048c.024.04.052.044.084.012.008-.016.008-.052 0-.108s-.008-.084 0-.084c.016-.008.024-.008.024 0 .008.008.016.012.024.012.016 0 .024-.012.024-.036 0-.024.004-.04.012-.048a.71.71 0 0 1 .24-.048c.04 0 .096.02.168.06.08.04.12.096.12.168 0 .04-.02.088-.06.144a.13.13 0 0 0-.024.048.188.188 0 0 1-.036.048c-.008.008-.016.012-.024.012 0-.008-.008-.008-.024 0-.008.008-.02.012-.036.012-.008-.008-.02-.012-.036-.012-.016 0-.02.012-.012.036.016.024.02.04.012.048s-.016.008-.024 0-.02-.004-.036.012c-.008.008-.004.016.012.024.024 0 .028.008.012.024-.048.048-.108.1-.18.156l-.192.144c-.008.008-.016.008-.024 0-.008-.016-.016-.02-.024-.012l-.084.12a5.486 5.486 0 0 0-.492.552.74.74 0 0 1-.084.132c-.032.04-.076.056-.132.048 0 .008.008.02.024.036.016.008.016.024 0 .048a9.2 9.2 0 0 0-.492.744l.252.312a.176.176 0 0 1 .036.108c0 .032.008.052.024.06.016 0 .028-.004.036-.012a.092.092 0 0 1 .036-.012c.024 0 .044.02.06.06.024.032.048.06.072.084l.096.096c.04.032.08.068.12.108v.012a4.771 4.771 0 0 1 .36.324c.064.056.1.1.108.132.016.032.04.052.072.06.032.008.06.02.084.036l.192.144c.072.048.14.1.204.156.024.016.032.032.024.048 0 .016.004.032.012.048.016.008.044.02.084.036.048.008.084.02.108.036.184.12.368.236.552.348.184.12.376.232.576.336.208.104.42.196.636.276.216.08.444.12.684.12.192 0 .376-.036.552-.108.184-.072.276-.204.276-.396a.646.646 0 0 0-.036-.204.534.534 0 0 0-.048-.132.192.192 0 0 0-.084-.108c-.024-.048-.068-.08-.132-.096-.04-.04-.076-.08-.108-.12-.032-.048-.08-.068-.144-.06-.024-.024-.036-.048-.036-.072a.08.08 0 0 1 .036-.072.104.104 0 0 1 .108-.012c.056.032.1.076.132.132.04.048.092.076.156.084l.06.06c.024.04.048.072.072.096a.33.33 0 0 1 .084.096.65.65 0 0 1 .072.132.665.665 0 0 1 .06.156c.016.032.02.064.012.096 0 .032.012.068.036.108a.69.69 0 0 1-.24.6.988.988 0 0 1-.612.264.303.303 0 0 0-.072-.036.107.107 0 0 0-.048-.012c-.024 0-.056.02-.096.06Zm-5.556-1.68c.016.008.024.008.024 0l.012-.024a.129.129 0 0 0 .024-.072c0-.032.004-.06.012-.084.144-.36.328-.752.552-1.176.016-.032.032-.04.048-.024.024.008.04.004.048-.012.016-.016.02-.036.012-.06v-.06a.078.078 0 0 0-.036-.036.078.078 0 0 1-.036-.036c-.032-.088-.076-.144-.132-.168a.288.288 0 0 1-.108-.144.527.527 0 0 0-.096-.156 2.23 2.23 0 0 0-.096-.144l-.036.408c-.008.08-.02.172-.036.276-.008.104-.028.2-.06.288a.364.364 0 0 0-.012.108v.132a.197.197 0 0 1-.012.06v.072l-.024.24c-.008.08-.02.164-.036.252-.016.08-.024.156-.024.228 0 .064.004.108.012.132Z"/>
</svg>
